<?xml version="1.0" encoding="utf-8"?><svg xmlns="http://www.w3.org/2000/svg" xmlns:xlink="http://www.w3.org/1999/xlink"><symbol viewBox="0 0 10 12" id="bell" xmlns="http://www.w3.org/2000/svg"><path d="M5 1.04v.433l.429.062A3.003 3.003 0 018 4.5v1.394c0 1.136.498 2.21 1.365 2.943a.376.376 0 01-.24.663H.875a.376.376 0 01-.245-.659A3.853 3.853 0 002 5.894V4.5a3.002 3.002 0 012.571-2.965L5 1.473V.5v.54zM6.06 11a1.374 1.374 0 01-2.12 0h2.12z"/></symbol><symbol viewBox="0 0 9 12" id="lock" xmlns="http://www.w3.org/2000/svg"><path d="M4.806.519A2.504 2.504 0 017 3v2h.875c.344 0 .625.28.625.625v5.25a.626.626 0 01-.625.625h-6.75a.626.626 0 01-.625-.625v-5.25C.5 5.281.781 5 1.125 5H2V3v2h5V3C7 1.725 6.041.67 4.806.519zm0 0z"/></symbol><symbol viewBox="0 0 9 13" id="paper" xmlns="http://www.w3.org/2000/svg"><path d="M8.648 2.797L6.703.828A1.157 1.157 0 005.906.5H1.125C.492.5 0 1.016 0 1.625v9.75A1.11 1.11 0 001.125 12.5h6.75c.61 0 1.125-.492 1.125-1.125V3.594c0-.281-.14-.586-.352-.797zm-.867.703H6V1.719L7.781 3.5zm-6.656 7.875v-9.75h3.75v2.438c0 .328.234.562.563.562h2.437v6.75h-6.75z"/></symbol><symbol viewBox="0 0 13 12" id="services" xmlns="http://www.w3.org/2000/svg"><path d="M1.81 7.176l-.093-.318-.33-.038-.842-.098A.05.05 0 01.5 6.673V5.377a.05.05 0 01.044-.05l.799-.09.344-.04.084-.336c.09-.357.225-.7.404-1.023l.162-.292-.207-.26-.5-.633a.049.049 0 01.003-.066l.915-.916a.05.05 0 01.068-.004l.597.474.27.214.297-.177a4.32 4.32 0 011.096-.463l.328-.088.04-.337.086-.745A.05.05 0 015.38.5h1.297a.05.05 0 01.048.045l.087.745.04.336.327.089c.376.1.734.25 1.07.448l.295.173.268-.213.575-.456a.049.049 0 01.066.003l.913.913c.02.02.02.049.005.067l-.47.594-.207.262.163.293c.18.32.32.661.413 1.016l.087.33.339.04.762.089a.05.05 0 01.045.048V6.62a.05.05 0 01-.045.049l-.772.089-.337.039-.089.327a4.288 4.288 0 01-.43 1.027l-.17.294.21.266.502.636.001.001a.049.049 0 01-.003.066l-.915.915a.05.05 0 01-.068.005l-.645-.51-.263-.209-.292.164c-.33.186-.681.328-1.048.424l-.331.086-.04.34-.095.827a.05.05 0 01-.049.045H5.327a.05.05 0 01-.05-.045l-.099-.857-.039-.332-.32-.091a4.347 4.347 0 01-.976-.413l-.294-.17-.266.21-.667.529a.049.049 0 01-.066-.003l-.34.34.34-.34-.915-.915a.05.05 0 01-.005-.068l.532-.67.21-.265-.166-.293a4.43 4.43 0 01-.397-.94zm6.862-1.224a2.647 2.647 0 00-2.644-2.644 2.647 2.647 0 00-2.644 2.644 2.647 2.647 0 002.644 2.644 2.647 2.647 0 002.644-2.644z"/></symbol><symbol viewBox="0 0 11 13" id="time" xmlns="http://www.w3.org/2000/svg"><path d="M1.068 3.152a.5.5 0 10.75.662l-.75-.662zm.75 6.781a.5.5 0 00-.75.662l.75-.662zm8.096-3.06A4.626 4.626 0 015.288 11.5v1a5.626 5.626 0 005.626-5.626h-1zM5.288 2.249a4.626 4.626 0 014.626 4.626h1a5.626 5.626 0 00-5.626-5.626v1zm-3.47 1.566a4.613 4.613 0 013.47-1.566v-1c-1.68 0-3.19.737-4.22 1.904l.75.662zm3.47 7.686a4.614 4.614 0 01-3.47-1.567l-.75.662a5.613 5.613 0 004.22 1.905v-1z"/><path d="M3.7 4.355L.91 3.73l.637-2.536m3.741 3.758v2.403L7.21 8.796"/></symbol><symbol viewBox="0 0 11 13" id="user" xmlns="http://www.w3.org/2000/svg"><path d="M7.336 7.625c-.68 0-.984.375-2.086.375-1.125 0-1.43-.375-2.11-.375-1.734 0-3.14 1.43-3.14 3.164v.586A1.11 1.11 0 001.125 12.5h8.25c.61 0 1.125-.492 1.125-1.125v-.586a3.181 3.181 0 00-3.164-3.164zm2.039 3.75h-8.25v-.586A2.02 2.02 0 013.141 8.75c.351 0 .89.375 2.109.375 1.195 0 1.734-.375 2.086-.375a2.04 2.04 0 012.039 2.04v.585zM5.25 7.25c1.852 0 3.375-1.5 3.375-3.375A3.391 3.391 0 005.25.5a3.376 3.376 0 00-3.375 3.375c0 1.875 1.5 3.375 3.375 3.375zm0-5.625c1.219 0 2.25 1.031 2.25 2.25a2.266 2.266 0 01-2.25 2.25A2.25 2.25 0 013 3.875a2.266 2.266 0 012.25-2.25z"/></symbol></svg>