<svg width="10" height="10" viewBox="0 0 10 10" fill="none" xmlns="http://www.w3.org/2000/svg">
<path d="M10 8.04714C10 7.8367 9.91583 7.62626 9.76431 7.47475L7.28956 5L9.76431 2.52525C9.91583 2.37374 10 2.1633 10 1.95286C10 1.74242 9.91583 1.53199 9.76431 1.38047L8.61953 0.23569C8.46801 0.0841752 8.25758 0 8.04714 0C7.8367 0 7.62626 0.0841752 7.47475 0.23569L5 2.71044L2.52525 0.23569C2.37374 0.0841752 2.1633 0 1.95286 0C1.74242 0 1.53199 0.0841752 1.38047 0.23569L0.23569 1.38047C0.0841751 1.53199 0 1.74242 0 1.95286C0 2.1633 0.0841751 2.37374 0.23569 2.52525L2.71044 5L0.23569 7.47475C0.0841751 7.62626 0 7.8367 0 8.04714C0 8.25758 0.0841751 8.46801 0.23569 8.61953L1.38047 9.76431C1.53199 9.91582 1.74242 10 1.95286 10C2.1633 10 2.37374 9.91582 2.52525 9.76431L5 7.28956L7.47475 9.76431C7.62626 9.91582 7.8367 10 8.04714 10C8.25758 10 8.46801 9.91582 8.61953 9.76431L9.76431 8.61953C9.91583 8.46801 10 8.25758 10 8.04714Z" fill="#404962"/>
</svg>
