<svg width="14" height="14" viewBox="0 0 14 14" fill="none" xmlns="http://www.w3.org/2000/svg">
<path d="M7.00033 2.33341C4.423 2.33341 2.33366 4.42275 2.33366 7.00008C2.33366 9.57741 4.423 11.6667 7.00033 11.6667C9.57766 11.6667 11.667 9.57741 11.667 7.00008C11.667 4.42275 9.57766 2.33341 7.00033 2.33341ZM1.16699 7.00008C1.16699 3.77842 3.77866 1.16675 7.00033 1.16675C10.222 1.16675 12.8337 3.77842 12.8337 7.00008C12.8337 10.2217 10.222 12.8334 7.00033 12.8334C3.77866 12.8334 1.16699 10.2217 1.16699 7.00008Z" fill="white"/>
<path d="M7.00033 8.16675C6.67816 8.16675 6.41699 7.90558 6.41699 7.58342V7.00008C6.41699 6.67792 6.67816 6.41675 7.00033 6.41675C7.32249 6.41675 7.58366 6.67792 7.58366 7.00008V7.58342C7.58366 7.90558 7.32249 8.16675 7.00033 8.16675Z" fill="white"/>
<path d="M6.12533 9.62508C6.12533 9.14183 6.51708 8.75008 7.00033 8.75008C7.48358 8.75008 7.87533 9.14183 7.87533 9.62508C7.87533 10.1083 7.48358 10.5001 7.00033 10.5001C6.51708 10.5001 6.12533 10.1083 6.12533 9.62508Z" fill="white"/>
<path d="M7.22779 4.55671C6.66952 4.53013 6.20139 4.84198 6.11739 5.34598C6.06442 5.66377 5.76388 5.87844 5.44609 5.82548C5.12831 5.77252 4.91363 5.47197 4.9666 5.15418C5.17426 3.90819 6.3103 3.34504 7.28328 3.39137C7.78168 3.4151 8.2939 3.59399 8.68831 3.96254C9.09251 4.34024 9.33366 4.88128 9.33366 5.54175C9.33366 6.29501 9.03727 6.85362 8.52703 7.19378C8.05852 7.50611 7.48422 7.58342 7.00033 7.58342C6.67816 7.58342 6.41699 7.32225 6.41699 7.00008C6.41699 6.67792 6.67816 6.41675 7.00033 6.41675C7.39144 6.41675 7.69213 6.34822 7.87988 6.22305C8.02588 6.12572 8.16699 5.95515 8.16699 5.54175C8.16699 5.18139 8.04355 4.9568 7.89177 4.81497C7.73019 4.66399 7.49501 4.56944 7.22779 4.55671Z" fill="white"/>
</svg>
