<svg width="20" height="20" viewBox="0 0 20 20" fill="none" xmlns="http://www.w3.org/2000/svg">
<path d="M1.66699 3.33341C1.66699 2.41294 2.41318 1.66675 3.33366 1.66675H11.667C12.5875 1.66675 13.3337 2.41294 13.3337 3.33341V6.66675H16.667C17.5875 6.66675 18.3337 7.41294 18.3337 8.33342V16.6667C18.3337 17.5872 17.5875 18.3334 16.667 18.3334H8.33366C7.41318 18.3334 6.66699 17.5872 6.66699 16.6667V13.3334H3.33366C2.41318 13.3334 1.66699 12.5872 1.66699 11.6667V3.33341ZM8.33366 13.3334V16.6667H16.667V8.33342H13.3337V11.6667C13.3337 12.5872 12.5875 13.3334 11.667 13.3334H8.33366ZM11.667 11.6667V3.33341L3.33366 3.33341V11.6667H11.667Z" fill="#35BE70"/>
</svg>
