<svg width="10" height="12" viewBox="0 0 10 12" fill="none" xmlns="http://www.w3.org/2000/svg">
<path d="M5.00003 1.04004V1.47315L5.42871 1.53493C6.88054 1.74416 8.00003 2.99404 8.00003 4.5V5.89398C8.00003 7.02999 8.49778 8.10306 9.3652 8.83705C9.45425 8.91381 9.50003 9.01745 9.50003 9.12497C9.50003 9.33144 9.33137 9.50003 9.12506 9.50003H0.875061C0.668629 9.50003 0.5 9.3314 0.5 9.12497C0.5 9.01565 0.547142 8.91273 0.630313 8.84109C1.50182 8.1035 2 7.03055 2 5.89398V4.5C2 2.99398 3.11908 1.74416 4.5713 1.53493L5 1.47316V1.04004V0.499969L5.00003 0.499985V1.04004Z" stroke="#848890"/>
<path d="M6.05952 11C5.8069 11.3052 5.42528 11.5 5.00009 11.5C4.57483 11.5 4.19319 11.3052 3.9406 11H6.05952Z" stroke="#848890"/>
</svg>
