<svg width="9" height="12" viewBox="0 0 9 12" fill="none" xmlns="http://www.w3.org/2000/svg">
<path d="M4.8063 0.518667C6.04077 0.670172 7 1.72528 7 3V4.5V5H7.5H7.875C8.21901 5 8.5 5.28076 8.5 5.625V10.875C8.5 11.2192 8.21901 11.5 7.875 11.5H1.125C0.780988 11.5 0.5 11.2192 0.5 10.875V5.625C0.5 5.28076 0.780988 5 1.125 5H1.5H2V4.5V3C2 2.89633 2.00635 2.7941 2.01867 2.6937C2.00637 2.7941 2.00003 2.89632 2.00003 3V4.5V5H2.50003H6.49997H6.99997V4.5V3C6.99997 1.72451 6.04135 0.670007 4.8063 0.518667ZM4.8063 0.518667C4.7059 0.506345 4.60367 0.5 4.5 0.5C4.39633 0.5 4.2941 0.506345 4.1937 0.518667C4.2941 0.506365 4.39632 0.500031 4.5 0.500031C4.60368 0.500031 4.7059 0.506365 4.8063 0.518667Z" stroke="#848890"/>
</svg>
