<svg width="13" height="12" viewBox="0 0 13 12" fill="none" xmlns="http://www.w3.org/2000/svg">
<path d="M1.80945 7.17646L1.71657 6.85801L1.38707 6.81979L0.5448 6.72208C0.544727 6.72207 0.544654 6.72206 0.544582 6.72205C0.517704 6.7188 0.5 6.69694 0.5 6.67343V5.37654C0.5 5.35307 0.517631 5.33126 0.544414 5.32793C0.544542 5.32791 0.544671 5.3279 0.5448 5.32788L1.34272 5.23682L1.68704 5.19752L1.7711 4.86131C1.86036 4.50424 1.99628 4.16042 2.1752 3.83759L2.33659 3.54639L2.13014 3.28518L1.6305 2.65303L1.63018 2.65262C1.61314 2.63111 1.61586 2.60392 1.63306 2.58672L2.54831 1.67147C2.56831 1.65214 2.59688 1.65221 2.61569 1.66711L3.21293 2.14055L3.48335 2.35493L3.7797 2.17812C4.12261 1.97355 4.49051 1.81786 4.87585 1.71471L5.20386 1.62691L5.24319 1.28963L5.33006 0.5448C5.33006 0.544743 5.33007 0.544687 5.33008 0.544631C5.33331 0.517726 5.35518 0.5 5.37871 0.5H6.6756C6.69913 0.5 6.721 0.517726 6.72423 0.544631C6.72424 0.544687 6.72425 0.544743 6.72425 0.5448L6.81111 1.28963L6.85038 1.62631L7.17766 1.7145C7.55404 1.81591 7.91234 1.96589 8.24718 2.16251L8.5425 2.33593L8.8109 2.12323L9.38648 1.66711C9.40799 1.65007 9.43519 1.65279 9.45238 1.66999L10.365 2.58259C10.3652 2.58275 10.3653 2.58291 10.3655 2.58308C10.3848 2.60308 10.3847 2.63164 10.3698 2.65045L10.3697 2.65066L9.90043 3.2437L9.69258 3.5064L9.85646 3.79855C10.0365 4.11955 10.1764 4.46029 10.2694 4.81479L10.356 5.14493L10.695 5.18453L11.4574 5.27357C11.4574 5.27358 11.4575 5.27359 11.4575 5.27359C11.4575 5.27359 11.4575 5.2736 11.4575 5.2736C11.4844 5.27684 11.5022 5.29871 11.5022 5.32223V6.61912C11.5022 6.64264 11.4845 6.66448 11.4576 6.66774C11.4575 6.66775 11.4574 6.66776 11.4574 6.66777L10.685 6.75672L10.348 6.79553L10.2595 7.12298C10.1628 7.48075 10.0172 7.82512 9.82927 8.15013L9.65951 8.44369L9.86946 8.71L10.3713 9.34649L10.372 9.34738C10.389 9.36889 10.3863 9.39608 10.3691 9.41328L9.45432 10.3281C9.45416 10.3282 9.454 10.3284 9.45385 10.3285C9.43384 10.3479 9.40527 10.3478 9.38646 10.3329L9.38626 10.3327L8.74108 9.82223L8.47812 9.61417L8.18582 9.77848C7.85563 9.96409 7.50452 10.1064 7.13817 10.2019L6.80686 10.2883L6.76758 10.6284L6.67209 11.4552C6.67209 11.4553 6.67208 11.4554 6.67207 11.4554C6.6688 11.4823 6.64693 11.5 6.62344 11.5H5.32655C5.30301 11.5 5.28112 11.4823 5.27791 11.4553C5.27791 11.4553 5.2779 11.4552 5.2779 11.4552L5.17801 10.5975L5.13943 10.2662L4.81873 10.1746C4.47759 10.0771 4.15034 9.93879 3.84259 9.76152L3.54867 9.59222L3.28271 9.80274L2.6158 10.3306L2.61567 10.3307C2.59413 10.3478 2.56694 10.345 2.54977 10.3279L2.21036 10.6673L2.54977 10.3279L1.63499 9.41309C1.63483 9.41293 1.63467 9.41276 1.63451 9.4126C1.61524 9.39265 1.61526 9.3642 1.63003 9.34539C1.63007 9.34534 1.63011 9.34528 1.63016 9.34523L2.16223 8.67417L2.37141 8.41035L2.20561 8.11731C2.03811 7.82127 1.90529 7.50506 1.80945 7.17646ZM8.67232 5.95223C8.67232 4.49434 7.48611 3.30813 6.02822 3.30813C4.57032 3.30813 3.38412 4.49434 3.38412 5.95223C3.38412 7.41013 4.57035 8.59633 6.02822 8.59633C7.48611 8.59633 8.67232 7.41013 8.67232 5.95223Z" stroke="#00C066"/>
</svg>
