<svg width="11" height="13" viewBox="0 0 11 13" fill="none" xmlns="http://www.w3.org/2000/svg">
<path d="M1.06849 3.15249C0.885757 3.35952 0.905458 3.67549 1.11249 3.85822C1.31953 4.04096 1.6355 4.02126 1.81823 3.81422L1.06849 3.15249ZM1.81823 9.93347C1.6355 9.72644 1.31953 9.70674 1.11249 9.88947C0.905458 10.0722 0.885757 10.3882 1.06849 10.5952L1.81823 9.93347ZM9.91351 6.87385C9.91351 9.42861 7.84247 11.4996 5.28771 11.4996V12.4996C8.39475 12.4996 10.9135 9.98089 10.9135 6.87385H9.91351ZM5.28771 2.24805C7.84247 2.24805 9.91351 4.31909 9.91351 6.87385H10.9135C10.9135 3.7668 8.39475 1.24805 5.28771 1.24805V2.24805ZM1.81823 3.81422C2.66657 2.85305 3.90618 2.24805 5.28771 2.24805V1.24805C3.60736 1.24805 2.09861 1.98537 1.06849 3.15249L1.81823 3.81422ZM5.28771 11.4996C3.90618 11.4996 2.66657 10.8946 1.81823 9.93347L1.06849 10.5952C2.09861 11.7623 3.60736 12.4996 5.28771 12.4996V11.4996Z" fill="#848890"/>
<path d="M3.69971 4.35505L0.911362 3.72923L1.54845 1.1933" stroke="#848890" stroke-linecap="round" stroke-linejoin="round"/>
<path d="M5.28809 4.95215V7.35487L7.21026 8.7965" stroke="#848890" stroke-linecap="round" stroke-linejoin="round"/>
</svg>
