<svg width="11" height="13" viewBox="0 0 11 13" fill="none" xmlns="http://www.w3.org/2000/svg">
<path d="M7.33594 7.625C6.65625 7.625 6.35156 8 5.25 8C4.125 8 3.82031 7.625 3.14062 7.625C1.40625 7.625 0 9.05469 0 10.7891V11.375C0 12.0078 0.492188 12.5 1.125 12.5H9.375C9.98438 12.5 10.5 12.0078 10.5 11.375V10.7891C10.5 9.05469 9.07031 7.625 7.33594 7.625ZM9.375 11.375H1.125V10.7891C1.125 9.66406 2.01562 8.75 3.14062 8.75C3.49219 8.75 4.03125 9.125 5.25 9.125C6.44531 9.125 6.98438 8.75 7.33594 8.75C8.46094 8.75 9.375 9.66406 9.375 10.7891V11.375ZM5.25 7.25C7.10156 7.25 8.625 5.75 8.625 3.875C8.625 2.02344 7.10156 0.5 5.25 0.5C3.375 0.5 1.875 2.02344 1.875 3.875C1.875 5.75 3.375 7.25 5.25 7.25ZM5.25 1.625C6.46875 1.625 7.5 2.65625 7.5 3.875C7.5 5.11719 6.46875 6.125 5.25 6.125C4.00781 6.125 3 5.11719 3 3.875C3 2.65625 4.00781 1.625 5.25 1.625Z" fill="#00C066"/>
</svg>
